<?xml version="1.0" encoding="UTF-8" standalone="no"?>
<svg
   viewBox="0 0 576 512"
   version="1.1"
   id="svg1"
   sodipodi:docname="icon.svg"
   inkscape:version="1.3 (0e150ed6c4, 2023-07-21)"
   xmlns:inkscape="http://www.inkscape.org/namespaces/inkscape"
   xmlns:sodipodi="http://sodipodi.sourceforge.net/DTD/sodipodi-0.dtd"
   xmlns="http://www.w3.org/2000/svg"
   xmlns:svg="http://www.w3.org/2000/svg">
  <defs
     id="defs1" />
  <sodipodi:namedview
     id="namedview1"
     pagecolor="#ffffff"
     bordercolor="#000000"
     borderopacity="0.25"
     inkscape:showpageshadow="2"
     inkscape:pageopacity="0.0"
     inkscape:pagecheckerboard="0"
     inkscape:deskcolor="#d1d1d1"
     inkscape:zoom="1.8315972"
     inkscape:cx="288"
     inkscape:cy="256.06066"
     inkscape:window-width="2530"
     inkscape:window-height="1387"
     inkscape:window-x="0"
     inkscape:window-y="0"
     inkscape:window-maximized="1"
     inkscape:current-layer="svg1" />
  <!--! Font Awesome Pro 6.4.2 by @fontawesome - https://fontawesome.com License - https://fontawesome.com/license (Commercial License) Copyright 2023 Fonticons, Inc. -->
  <path
     d="M0 64C0 28.7 28.7 0 64 0H224V128c0 17.7 14.3 32 32 32H384V285.7l-86.8 86.8c-10.3 10.3-17.5 23.1-21 37.2l-18.7 74.9c-2.3 9.2-1.8 18.8 1.3 27.5H64c-35.3 0-64-28.7-64-64V64zm384 64H256V0L384 128zM549.8 235.7l14.4 14.4c15.6 15.6 15.6 40.9 0 56.6l-29.4 29.4-71-71 29.4-29.4c15.6-15.6 40.9-15.6 56.6 0zM311.9 417L441.1 287.8l71 71L382.9 487.9c-4.1 4.1-9.2 7-14.9 8.4l-60.1 15c-5.5 1.4-11.2-.2-15.2-4.2s-5.6-9.7-4.2-15.2l15-60.1c1.4-5.6 4.3-10.8 8.4-14.9z"
     id="path1" />
  <path
     style="fill:#565f89;stroke-width:0.269164"
     d="M 52.38671,510.73085 C 47.805601,509.90106 39.942882,507.26842 35.761137,505.16419 18.297464,496.37658 6.1161482,480.5289 1.450797,460.52701 L 0.30468768,455.61327 0.13221105,261.79336 C 0.02043151,136.18153 0.15182022,65.379631 0.50556486,60.602844 1.3421983,49.305371 4.0308755,40.462274 9.3337704,31.566751 18.47554,16.231577 33.275325,5.689277 51.594313,1.4633859 56.433892,0.34697459 57.770769,0.32703254 140.16577,0.14218181 l 83.65771,-0.18768364 0.14892,67.58673183 0.14893,67.58673 1.40781,3.6141 c 2.10529,5.40465 4.14338,8.58461 7.83143,12.21908 3.61245,3.55997 9.14083,6.7699 14.28787,8.29593 2.98112,0.88385 8.26172,0.96931 69.69753,1.12794 l 66.47204,0.17163 v 62.34041 62.34039 l -46.01492,46.15095 c -33.1587,33.25673 -46.87954,47.37756 -49.10959,50.54123 -3.66408,5.19807 -7.34558,12.00378 -9.65044,17.84006 -0.91515,2.31731 -6.37514,22.95503 -12.13331,45.86161 -10.43188,41.49906 -10.4703,41.6739 -10.7196,48.78374 -0.23363,6.66283 0.43383,12.66524 1.80193,16.20488 0.35094,0.90794 -4.64862,0.95301 -100.55736,0.90645 -82.823797,-0.0402 -101.665892,-0.18289 -105.04801,-0.79551 z"
     id="path2" />
  <path
     style="fill:#565f89;stroke-width:0.269164"
     d="M 256.06066,64.066231 V 0.37510995 L 319.66635,63.923175 c 34.98313,34.951434 63.60569,63.612435 63.60569,63.691115 0,0.0787 -28.62256,0.14306 -63.60569,0.14306 h -63.60569 z"
     id="path3" />
  <path
     style="fill:#292e42;fill-opacity:1;stroke-width:0.269164"
     d="m 300.28436,511.0648 c -6.87942,-2.1002 -12.01137,-8.57408 -12.01137,-15.15214 0,-0.99837 3.59122,-16.24781 7.98049,-33.88764 6.49021,-26.0832 8.38712,-32.93903 10.15803,-36.71317 l 2.17754,-4.64076 66.13592,-66.20306 66.13592,-66.20306 35.35758,35.35444 35.35758,35.35444 -62.92357,62.97868 c -34.60796,34.63827 -64.75078,64.55848 -66.98403,66.48935 -2.23325,1.93087 -5.58735,4.26235 -7.45355,5.18108 -3.94199,1.94064 -67.13547,17.98369 -70.52951,17.90547 -1.11986,-0.0258 -2.65032,-0.23445 -3.40103,-0.46363 z"
     id="path4" />
  <path
     style="fill:#292e42;fill-opacity:1;stroke-width:0.269164"
     d="m 297.69701,509.63321 c -5.03939,-2.51123 -8.88349,-8.06228 -8.94867,-12.92227 -0.0331,-2.46747 2.31303,-12.70203 9.35844,-40.82468 5.10587,-20.38072 6.60803,-25.6691 8.75355,-30.8169 1.59915,-3.83687 1.87063,-4.11733 67.80985,-70.05173 l 66.20428,-66.19942 35.08257,35.08573 35.08257,35.08573 -65.65819,65.51941 c -49.9012,49.79573 -66.42134,65.96487 -68.83817,67.37559 -3.65241,2.13194 -10.39945,4.12878 -36.12997,10.69299 -24.3422,6.21003 -34.2423,8.45172 -37.32577,8.45172 -1.68238,0 -3.56969,-0.48882 -5.39049,-1.39617 z"
     id="path5" />
  <path
     style="fill:#565f89;fill-opacity:1;stroke-width:0.269164"
     d="m 499.40752,300.4009 -35.36639,-35.36953 15.98702,-15.85107 c 8.79286,-8.71809 17.17254,-16.65753 18.62152,-17.6432 13.05129,-8.8782 29.6805,-9.48295 43.22711,-1.57203 5.42503,3.1681 24.83839,22.58146 28.00649,28.00649 3.56789,6.10962 5.15209,11.52354 5.43186,18.56304 0.29636,7.45681 -0.68585,12.51695 -3.60321,18.56303 -3.14502,6.51787 -5.70969,9.52174 -22.02442,25.79611 l -14.91358,14.87669 z"
     id="path6" />
  <path
     style="fill:#565f89;fill-opacity:1;stroke-width:0.269164"
     d="M 53.159312,510.45423 C 49.257348,509.9454 41.0837,507.30335 36.198301,504.97177 21.716622,498.0603 9.7138256,484.2614 3.9498313,467.89763 0.20128847,457.25565 0.49667546,476.49966 0.6898473,255.51469 0.85200309,70.01149 0.92965521,55.674893 1.7927897,51.882894 3.2481496,45.489081 4.8318036,41.108478 7.7819096,35.316176 15.244139,20.664668 27.647645,9.8871022 43.677725,4.125837 c 9.427151,-3.38814987 2.93256,-3.14381378 94.999055,-3.57400443 46.39393,-0.21678074 84.47545,-0.28640746 84.62559,-0.1547261 0.15014,0.13168129 0.39583,30.86852453 0.54597,68.30409553 l 0.27299,68.064678 2.31209,4.83514 c 3.23266,6.76027 8.80335,12.33984 15.59734,15.62219 4.25904,2.05766 5.43984,2.37449 10.37346,2.7834 3.06204,0.25379 30.89597,0.47214 61.85319,0.48523 30.95722,0.0131 59.27267,0.1844 62.92322,0.38069 l 6.63738,0.35689 v 61.7454 61.74541 l -27.75184,27.84652 C 306.40483,362.3975 290.22898,379.1 287.1906,383.68474 c -5.12148,7.72803 -8.36962,15.29127 -11.42928,26.61289 -4.22056,15.61721 -17.87065,70.33109 -18.84605,75.54088 -1.03979,5.55369 -1.10009,16.5402 -0.11653,21.23385 0.39342,1.87747 0.59304,3.53586 0.4436,3.6853 -0.45941,0.45941 -200.514197,0.16196 -204.083028,-0.30343 z"
     id="path7" />
  <path
     style="fill:#565f89;fill-opacity:1;stroke-width:0.269164"
     d="m 297.69701,509.63321 c -5.04104,-2.51205 -8.88626,-8.06627 -8.94616,-12.92227 -0.0316,-2.5601 2.05562,-11.69461 9.05319,-39.62067 5.41332,-21.6036 6.88865,-26.82003 9.05629,-32.02091 1.59915,-3.83687 1.87063,-4.11733 67.80985,-70.05173 l 66.20428,-66.19942 35.08257,35.08573 35.08257,35.08573 -65.65819,65.51941 c -50.27271,50.16647 -66.41152,65.95933 -68.87307,67.39674 -3.80987,2.22477 -12.09337,4.65138 -39.09791,11.45355 -33.83914,8.52372 -34.87129,8.68678 -39.71342,6.27384 z"
     id="path8" />
  <path
     style="fill:#292e42;fill-opacity:1;stroke-width:0.269164"
     d="M 53.232227,510.45559 C 45.839966,509.47322 36.348977,505.69505 29.014988,500.81518 15.367466,491.73443 5.2019248,476.39273 1.4152878,459.16209 0.5867474,455.39191 0.52923868,439.24793 0.6898473,255.51469 0.85200309,70.01149 0.92965521,55.674893 1.7927897,51.882894 3.2481496,45.489081 4.8318036,41.108478 7.7819096,35.316176 15.603162,19.959756 28.305376,9.2944621 45.70941,3.4707086 50.464804,1.8794545 52.69048,1.4653782 58.622354,1.0683169 62.564323,0.80445378 101.21057,0.50455918 144.50291,0.40188454 l 78.71332,-0.18668117 0.23702,3.30472053 c 0.13036,1.8175962 0.27456,32.2367221 0.32043,67.5980591 l 0.0834,64.293337 1.42407,3.55725 c 3.8023,9.49799 10.93818,16.37864 20.76878,20.02595 3.18296,1.18093 3.25181,1.18243 70.34058,1.53593 36.93498,0.19461 67.21593,0.39373 67.291,0.4425 0.0751,0.0488 0.13576,27.91274 0.13488,61.91994 l -0.002,61.83128 -25.01251,25.11469 c -42.68075,42.85511 -66.95245,67.69616 -69.64707,71.28079 -6.3814,8.48914 -9.70631,15.79178 -13.46313,29.56966 -3.85895,14.15239 -17.16678,67.32077 -18.50845,73.94621 -1.31745,6.50586 -1.49949,17.11783 -0.38489,22.43684 0.39342,1.87747 0.59304,3.53586 0.4436,3.6853 -0.4586,0.4586 -200.515125,0.16238 -204.010113,-0.30207 z"
     id="path9" />
  <path
     style="fill:#292e42;fill-opacity:1;stroke-width:0.269164"
     d="M 256.06066,64.289036 V 0.82072999 l 63.06172,63.05882701 63.06172,63.058833 -24.70722,0.33349 c -13.58896,0.18342 -41.96674,0.36768 -63.06171,0.40948 l -38.35451,0.076 z"
     id="path10" />
  <path
     style="fill:#292e42;fill-opacity:1;stroke-width:0.269164"
     d="M 51.71922,509.91682 C 43.89581,508.60093 32.103252,503.12576 25.227025,497.61675 15.280972,489.64831 7.7680468,478.48767 3.199807,464.89479 L 1.3649289,459.43507 1.2223497,267.52607 C 1.1439311,161.97611 1.2963708,70.0891 1.5611046,63.332701 2.0145569,51.759923 2.1403791,50.747895 3.7332274,45.861611 5.7359521,39.717974 9.3645447,32.415878 12.917018,27.380363 16.127035,22.830266 22.655307,16.3075 27.298578,13.010932 35.297834,7.3317255 46.915772,2.6431186 55.441398,1.6534424 58.46584,1.3023575 91.290677,0.9487581 141.52578,0.72611461 c 69.73632,-0.30907344 81.23231,-0.2508606 81.45374,0.41246149 0.14181,0.4247784 0.34951,30.9918509 0.46159,67.9268269 l 0.20377,67.154507 1.9303,4.09478 c 3.74483,7.94399 9.15405,13.51944 16.76475,17.27995 3.37699,1.66861 4.89182,2.07352 9.02589,2.41263 2.73231,0.22413 33.52897,0.58583 68.43702,0.80379 l 63.4692,0.39628 10e-4,3.06647 c 5.8e-4,1.68656 0.14755,29.35501 0.32659,61.48543 l 0.32553,58.41896 -37.33097,37.67204 c -59.56362,60.1078 -59.75263,60.31469 -64.84327,70.9763 -3.63895,7.62126 -5.30492,13.3403 -14.71146,50.50237 -11.14094,44.01416 -10.62434,41.46275 -10.66781,52.68626 -0.0209,5.40511 0.14911,10.87165 0.37787,12.14786 l 0.41593,2.32038 -101.42067,-0.0642 c -55.781307,-0.0353 -102.592837,-0.2614 -104.02556,-0.50239 z"
     id="path11" />
  <path
     style="fill:#292e42;fill-opacity:1;stroke-width:0.269164"
     d="m 297.50355,509.12607 c -3.92344,-2.044 -7.43513,-6.6443 -8.3653,-10.95855 -0.46979,-2.1789 1.09635,-9.48958 7.82962,-36.54856 6.09533,-24.49528 8.73713,-33.67282 10.84409,-37.67204 1.07859,-2.04726 17.89114,-19.21706 67.23738,-68.6661 l 65.79917,-65.93624 34.84118,34.81586 34.84118,34.81586 -62.128,61.97997 c -34.17039,34.08898 -64.5073,64.08904 -67.41535,66.66681 -5.07596,4.49945 -5.52344,4.76468 -11.19241,6.63398 -6.31624,2.08273 -19.12927,5.53729 -38.93634,10.49776 -24.93778,6.2454 -28.789,6.75011 -33.35522,4.37125 z"
     id="path12" />
  <path
     style="fill:#292e42;fill-opacity:1;stroke-width:0.269164"
     d="m 499.69917,300.15798 -35.07997,-35.09454 13.24111,-13.14129 c 7.28261,-7.2277 15.13148,-14.86809 17.44192,-16.97862 7.349,-6.71313 16.03267,-10.01025 26.32444,-9.99518 6.48332,0.01 10.95941,0.9572 16.33639,3.45881 4.66376,2.1698 7.77057,4.57423 15.49761,11.994 17.12625,16.44518 21.45868,24.1232 21.43932,37.99518 -0.0129,9.22718 -2.13805,15.79519 -7.47389,23.09861 -1.37833,1.88659 -9.28776,10.25383 -17.57651,18.59387 l -15.07044,15.16369 z"
     id="path13" />
  <path
     style="fill:#565f89;fill-opacity:1;stroke-width:0.269164"
     d="M 51.71922,509.91682 C 40.715019,508.06592 26.537885,500.21879 18.654196,491.61514 10.270474,482.46578 3.3580021,468.97828 1.6457266,458.42849 0.98647158,454.36664 0.94641009,76.493865 1.6036075,61.148815 1.9959444,51.988053 2.193786,50.565786 3.7301033,45.861611 6.7963397,36.472852 11.872432,27.773351 18.395691,20.727452 27.167857,11.252466 42.607549,3.2411303 55.143128,1.6599696 58.137422,1.2822877 88.687697,0.94896917 141.25281,0.72047057 211.22142,0.4163196 222.75677,0.47534559 222.96993,1.1386143 c 0.13652,0.4247574 0.36454,31.0251057 0.50672,68.0007727 l 0.25851,67.228483 2.28061,4.6681 c 3.64574,7.46237 9.20609,12.95483 17.05964,16.85138 2.90704,1.44234 4.25583,1.73685 9.68281,2.11426 3.46791,0.24118 34.21247,0.60812 68.32125,0.81542 l 62.01596,0.37691 0.36129,27.04919 c 0.19871,14.87705 0.36129,42.57609 0.36129,61.55344 v 34.50427 l -35.63922,35.9728 c -42.13961,42.53404 -55.23181,56.0122 -59.07298,60.81451 -5.19605,6.49618 -8.49829,13.00528 -11.68142,23.02544 -2.42951,7.64784 -15.68794,59.68901 -20.07528,78.79826 -1.06339,4.63162 -1.43432,19.66257 -0.61643,24.9782 l 0.39904,2.59336 -101.40378,-0.0642 c -55.772072,-0.0353 -102.575997,-0.2614 -104.00872,-0.50239 z"
     id="path14" />
  <path
     style="fill:#565f89;fill-opacity:1;stroke-width:0.269164"
     d="m 256.06055,64.42554 1.1e-4,-63.058823 62.51666,62.512851 62.51667,62.512852 -12.42378,0.37303 c -6.83307,0.20517 -34.96561,0.45086 -62.51677,0.54597 l -50.093,0.17294 z"
     id="path15" />
</svg>
